<svg width="1866" height="294" viewBox="0 0 1866 294" fill="none" xmlns="http://www.w3.org/2000/svg">
<g clip-path="url(#clip0_9_25)">
<path d="M320.2 215.5V191.4H416.2C422.4 191.4 425.5 188.3 425.5 182.1V159.5C425.5 153.7 422.9 150.3 417.8 149.3L357.4 137.2C332.6 132.2 320.2 115.6 320.2 87.4V70C320.2 35.3 337.5 18 372.2 18H443.1L463.8 34V58.1H374C367.8 58.1 364.7 61.2 364.7 67.4V87.5C364.7 93.3 367.3 96.7 372.4 97.7L432.8 109.8C457.6 114.8 470 131.4 470 159.6V179.4C470 214.1 452.7 231.4 418 231.4H340.9L320.2 215.5V215.5Z" fill="black"/>
<path d="M492.9 231.6V2.5H535.6V68.1H583.3C616.7 68.1 633.5 84.8 633.5 118.3V231.6H590.8V115.2C590.8 108.6 587.5 105.3 580.9 105.3H535.7V231.6H492.9V231.6Z" fill="black"/>
<path d="M658.9 181.4V118.2C658.9 84.8 675.6 68 709.1 68H752.4C785.8 68 802.6 84.7 802.6 118.2V181.4C802.6 214.8 785.9 231.6 752.4 231.6H709.1C675.6 231.6 658.9 214.9 658.9 181.4V181.4ZM701.6 184.5C701.6 191.1 704.9 194.4 711.5 194.4H749.9C756.5 194.4 759.8 191.1 759.8 184.5V115.1C759.8 108.5 756.5 105.2 749.9 105.2H711.5C704.9 105.2 701.6 108.5 701.6 115.1V184.5Z" fill="black"/>
<path d="M829.2 293.5V68.1H919.6C953 68.1 969.8 84.8 969.8 118.3V181.5C969.8 214.9 953.1 231.7 919.6 231.7H871.9V293.6H829.2V293.5V293.5ZM871.9 194.4H917.1C923.7 194.4 927 191.1 927 184.5V115.1C927 108.5 923.7 105.2 917.1 105.2H871.9V194.4V194.4Z" fill="black"/>
<path d="M996.3 293.5V68.1H1086.7C1120.1 68.1 1136.9 84.8 1136.9 118.3V181.5C1136.9 214.9 1120.2 231.7 1086.7 231.7H1039V293.6H996.3V293.5V293.5ZM1039.1 194.4H1084.3C1090.9 194.4 1094.2 191.1 1094.2 184.5V115.1C1094.2 108.5 1090.9 105.2 1084.3 105.2H1039.1V194.4V194.4Z" fill="black"/>
<path d="M1162.9 41.5V0H1206.9V41.5H1162.9ZM1163.5 231.6V68.1H1206.2V231.6H1163.5Z" fill="black"/>
<path d="M1235.4 231.6V68.1H1325.8C1359.2 68.1 1376 84.8 1376 118.3V231.6H1333.3V115.2C1333.3 108.6 1330 105.3 1323.4 105.3H1278.2V231.6H1235.4Z" fill="black"/>
<path d="M1400.1 181.4V118.2C1400.1 84.8 1416.8 68 1450.3 68H1540.7V243.2C1540.7 276.6 1524 293.4 1490.5 293.4H1432.6L1414 279.5V256.3H1488C1494.6 256.3 1497.9 253 1497.9 246.4V231.5H1450.2C1416.8 231.6 1400.1 214.9 1400.1 181.4V181.4ZM1442.8 184.5C1442.8 191.1 1446.1 194.4 1452.7 194.4H1497.9V105.2H1452.7C1446.1 105.2 1442.8 108.5 1442.8 115.1V184.5Z" fill="black"/>
<path d="M1655.8 234C1645 234 1634.9 232 1625.5 228.1C1616.1 224.1 1607.9 218.7 1600.9 211.6C1593.9 204.6 1588.4 196.3 1584.4 186.7C1580.4 177.1 1578.5 166.6 1578.5 155.3C1578.5 144 1580.5 133.5 1584.4 123.9C1588.4 114.3 1593.8 106 1600.9 99C1607.9 92 1616.1 86.5 1625.5 82.6C1634.9 78.7 1645 76.8 1655.8 76.8C1666.6 76.8 1676.8 78.8 1686.2 82.7C1695.5 86.7 1703.7 92.1 1710.7 99.2C1717.7 106.2 1723.2 114.5 1727.3 124C1731.3 133.5 1733.3 144 1733.3 155.3C1733.3 166.6 1731.3 177.1 1727.3 186.7C1723.3 196.3 1717.7 204.6 1710.6 211.6C1703.5 218.6 1695.3 224.1 1686.1 228.1C1676.8 232.1 1666.7 234 1655.8 234ZM1655.8 215.4C1664.1 215.4 1671.7 213.9 1678.7 210.8C1685.7 207.7 1691.7 203.4 1696.9 197.9C1702.1 192.4 1706 186 1708.8 178.7C1711.5 171.4 1712.9 163.6 1712.9 155.3C1712.9 147 1711.5 139.2 1708.8 132C1706.1 124.8 1702.2 118.4 1697 112.9C1691.9 107.4 1685.8 103.1 1678.8 100C1671.8 96.9 1664.1 95.4 1655.8 95.4C1647.5 95.4 1639.6 96.9 1632.7 100C1625.8 103.1 1619.7 107.4 1614.7 112.9C1609.7 118.4 1605.7 124.8 1602.8 132C1599.9 139.2 1598.5 147 1598.5 155.3C1598.5 163.6 1599.9 171.4 1602.8 178.7C1605.7 186 1609.6 192.4 1614.7 197.9C1619.7 203.4 1625.8 207.7 1632.8 210.8C1639.8 213.9 1647.5 215.4 1655.8 215.4V215.4Z" fill="black"/>
<path d="M1814.7 234C1805.2 234 1796.4 232.2 1788.3 228.6C1780.3 225 1773.4 220 1767.8 213.8C1762.1 207.5 1758.2 200.5 1755.8 192.7L1773.2 185.5C1776.9 195.5 1782.4 203 1789.7 208.2C1797 213.4 1805.5 216 1815.4 216C1821.4 216 1826.7 215 1831.2 213.1C1835.8 211.2 1839.3 208.5 1841.7 205C1844.2 201.5 1845.4 197.5 1845.4 192.8C1845.4 186.3 1843.6 181.2 1840 177.6C1836.4 174 1831.1 171.1 1824.2 168.9L1796.2 160.3C1785.2 157 1776.7 151.7 1770.8 144.4C1764.9 137 1762 128.6 1762 119C1762 110.7 1764 103.4 1768 97C1772 90.7 1777.6 85.7 1784.8 82.1C1792 78.5 1800.1 76.7 1809.2 76.7C1818.3 76.7 1826.8 78.3 1834.1 81.6C1841.5 84.9 1847.7 89.3 1852.9 94.9C1858.1 100.5 1861.9 106.8 1864.3 113.7L1846.9 120.9C1843.8 112.3 1838.9 105.8 1832.3 101.4C1825.7 97 1818 94.8 1809.3 94.8C1803.8 94.8 1799.1 95.7 1795 97.6C1790.9 99.4 1787.7 102.1 1785.4 105.6C1783.1 109.1 1781.9 113.2 1781.9 118C1781.9 123.6 1783.7 128.6 1787.2 133C1790.7 137.4 1796.2 140.7 1803.6 142.9L1829 150.7C1841 154.2 1850 159.4 1856.1 166.2C1862.2 173 1865.2 181.5 1865.2 191.6C1865.2 200.1 1863.1 207.4 1858.9 213.8C1854.7 220.1 1848.8 225.1 1841.2 228.7C1833.6 232.2 1824.8 234 1814.7 234V234Z" fill="black"/>
<path d="M1865.1 255.3H1578.5V293.5H1865.1V255.3Z" fill="#2962FF"/>
<path d="M105.9 187.6C92.3 174 66.7 178.4 49.3 178.4H0V216H71.4C73.1 216 75.2 216.2 77.2 216.2C77.3 218 77.5 219.8 77.5 221.1V293.4H115.1V244.2C115.1 226.8 119.4 201.2 105.9 187.6V187.6ZM77.5 211.8C77.2 210.5 78 210 77.5 211.8V211.8ZM81.5 215.9C83.9 215.7 83.7 217.1 81.5 215.9V215.9Z" fill="#2962FF"/>
<path d="M203 293.5H165.4V229.3C165.4 207.7 165.6 186 165.4 164.4C165.1 140.5 147.5 128.1 125.2 128.1H0V90.5H71.7C91.4 90.5 111.2 89.9 130.9 90.5C171.9 91.7 202.3 123.5 203.1 164.1C203.8 207.2 203 250.4 203 293.5V293.5Z" fill="#2962FF"/>
<path d="M292.6 293.5H255V199.3C255 172.9 255.4 146.6 255 120.2C254.3 73.7 217.1 38.8 171.2 38.6C114.2 38.3 57.2 38.6 0.100006 38.6V0.899997H100.5C125.8 0.899997 152.4 -1.1 177.9 0.899997C181.9 1.2 185.9 1.6 189.9 2.2C248.7 10.3 291.9 61.5 292.7 120.4C293.4 178 292.6 235.8 292.6 293.5V293.5Z" fill="#2962FF"/>
</g>
<defs>
<clipPath id="clip0_9_25">
<rect width="1865.2" height="293.6" fill="white"/>
</clipPath>
</defs>
</svg>
