<svg xmlns="http://www.w3.org/2000/svg" xmlns:xlink="http://www.w3.org/1999/xlink" viewBox="0 0 60.322 66.322" fill="#fff" fill-rule="evenodd" stroke="#000" stroke-linecap="round" stroke-linejoin="round"><use xlink:href="#B" x=".661" y=".661"/><defs><linearGradient id="A" x1="-0.00%" y1="50.01%" x2="100.00%" y2="50.01%"><stop offset="0%" stop-color="#52c3e7"/><stop offset="100%" stop-color="#0089cc"/></linearGradient></defs><symbol id="B" overflow="visible"><path d="M28.965 14.569h-2.908c-.241 1.179-.417 2.371-.529 3.569l-2.115 12.824h3.57c4.627 0 8.065-3.834 8.065-9.651 0-4.098-2.38-6.742-6.082-6.742zm0 0h-2.908c-.241 1.179-.417 2.371-.529 3.569l-2.115 12.824h3.57c4.627 0 8.065-3.834 8.065-9.651 0-4.098-2.38-6.742-6.082-6.742zm0 0h-2.908c-.241 1.179-.417 2.371-.529 3.569l-2.115 12.824h3.57c4.627 0 8.065-3.834 8.065-9.651 0-4.098-2.38-6.742-6.082-6.742zm29.403 41.143c-.635 0-8.038-.925-11.198-18.641 0 0 8.62-10.22 8.554-18.958C54.534 7.311 45.015 0 31.609 0c0 0-16.79.661-19.831 1.322A7.42 7.42 0 0 0 5.961 8.99a41.88 41.88 0 0 1-.661 7.932L.408 48.414C.012 50.265-.914 55.95 2.656 60.18a10.84 10.84 0 0 0 8.726 3.702 32.6 32.6 0 0 0 12.428-2.38c1.209-.568 2.255-1.432 3.041-2.512a14.62 14.62 0 0 0 11.634 5.024c4.735-.026 9.397-1.158 13.617-3.305s6.081-2.433 6.306-4.984zm-11.898-.423c-2.555.856-5.239 1.258-7.932 1.19-2.644 0-6.214-.661-8.461-7.139l-3.834-11.105h-3.887l-1.719 10.577c-.262 1.172-.395 2.369-.397 3.57v.264c.003.68.138 1.354.397 1.983a19.3 19.3 0 0 1-4.826 1.322c-1.465.236-2.945.36-4.429.37-1.983 0-3.834-.661-3.966-4.098.022-.931.111-1.858.264-2.776l4.892-31.439c.417-2.402.638-4.834.661-7.271V8.223c4.103-.716 8.262-1.07 12.427-1.058h5.685c3.41-.072 6.795.605 9.915 1.983.839.406 1.636.893 2.38 1.454a25.34 25.34 0 0 1 1.983 1.851 14.54 14.54 0 0 1 1.983 3.437 14 14 0 0 1 .661 4.098v1.19c-.397 5.817-4.098 10.577-9.783 13.617l5.156 13.617c1.454 3.702 2.38 5.156 3.966 6.346a4.69 4.69 0 0 1-1.19.529zm-17.504-40.72h-2.908c-.241 1.179-.417 2.371-.529 3.569l-2.115 12.824h3.57c4.627 0 8.065-3.834 8.065-9.651 0-4.098-2.38-6.742-6.082-6.742zm0 0h-2.908c-.241 1.179-.417 2.371-.529 3.569l-2.115 12.824h3.57c4.627 0 8.065-3.834 8.065-9.651 0-4.098-2.38-6.742-6.082-6.742zm0 0h-2.908c-.241 1.179-.417 2.371-.529 3.569l-2.115 12.824h3.57c4.627 0 8.065-3.834 8.065-9.651 0-4.098-2.38-6.742-6.082-6.742zm0 0h-2.908c-.241 1.179-.417 2.371-.529 3.569l-2.115 12.824h3.57c4.627 0 8.065-3.834 8.065-9.651 0-4.098-2.38-6.742-6.082-6.742z" stroke="none" fill="url(#A)" fill-rule="nonzero"/></symbol></svg>