<?xml version="1.0" encoding="utf-8"?>
<!-- Generator: Adobe Illustrator 21.1.0, SVG Export Plug-In . SVG Version: 6.00 Build 0)  -->
<svg version="1.1"
	 id="Layer_1" inkscape:output_extension="org.inkscape.output.svg.inkscape" inkscape:version="0.46" sodipodi:docname="notice_of_meeting_2006.svg" sodipodi:version="0.32" xmlns:cc="http://creativecommons.org/ns#" xmlns:dc="http://purl.org/dc/elements/1.1/" xmlns:inkscape="http://www.inkscape.org/namespaces/inkscape" xmlns:rdf="http://www.w3.org/1999/02/22-rdf-syntax-ns#" xmlns:sodipodi="http://sodipodi.sourceforge.net/DTD/sodipodi-0.dtd" xmlns:svg="http://www.w3.org/2000/svg"
	 xmlns="http://www.w3.org/2000/svg" xmlns:xlink="http://www.w3.org/1999/xlink" x="0px" y="0px" viewBox="0 0 68 68"
	 style="enable-background:new 0 0 68 68;" xml:space="preserve">
<style type="text/css">
	.st0{fill:#FE0000;}
</style>
<path class="st0" d="M35.2,8.9c0,6.7,11.5,14.2,11.5,21.9c0,0.5-0.1,1.1-0.3,1.6c10.7,2.2,18.4,7.5,18.4,13.6
	c0,8.3-13.6,15.1-30.4,15.1c-0.1,0-0.2,0-0.3,0C17.5,61.1,4,54.5,4,46.3c0-6.1,8.2-11.1,18.1-13.8c0,3.4,11.3,14.2,11.6,18.6
	c0,0.3,0,0.5,0,0.8c0,0.2,0,0.4,0,0.6c2.4-1.3,2.4-5.3,2.4-5.3c0-9.4-11-13.6-11-22.9c0-3.6,1.7-6.3,3.2-7.1v2.6
	c0,6.7,11.9,14.3,11.9,20.4v2c2.8-1.1,2.8-6.1,2.8-6.1c0-8.5-11.1-13.2-11.1-22.9c0-3.6,1.7-6.3,3.2-7.1v2.6"/>
</svg>
